<svg width="111" height="71" viewBox="0 0 111 71" fill="none" xmlns="http://www.w3.org/2000/svg">
<path d="M58.8458 28.5662C52.9074 45.6829 57.4681 57.6898 61.6053 63.1217C62.4035 64.1696 63.9455 63.9167 64.5549 62.7488L69.3458 53.5662C76.3458 43.0662 85.3458 39.0662 94.8458 36.5662C113.846 31.5662 112.5 13.5683 106.846 7.56619C90.8985 -9.36236 67.3458 4.06619 58.8458 28.5662Z" fill="#F8C35B"/>
<path d="M19.6188 51.267C29.2188 54.867 34.9521 64.4337 36.6188 68.767C37.2662 70.267 40.6188 71.267 40.6188 67.267C40.6188 63.267 39.6188 34.267 22.6188 24.267C5.6188 14.267 -2.3812 29.767 0.618804 36.767C3.6188 43.767 7.6188 46.767 19.6188 51.267Z" fill="#EF6155"/>
</svg>
